<svg xmlns="http://www.w3.org/2000/svg" viewBox="0 0 320 360" role="img" aria-label="Floral cat logo">
  <defs>
    <linearGradient id="furA" x1="60" y1="46" x2="256" y2="292" gradientUnits="userSpaceOnUse">
      <stop offset="0" stop-color="#fff7f3"/>
      <stop offset="0.34" stop-color="#f7fbff"/>
      <stop offset="0.7" stop-color="#fce7f3"/>
      <stop offset="1" stop-color="#dbeafe"/>
    </linearGradient>
    <linearGradient id="earA" x1="63" y1="36" x2="122" y2="148" gradientUnits="userSpaceOnUse">
      <stop offset="0" stop-color="#fda4af"/>
      <stop offset="1" stop-color="#7f1d1d"/>
    </linearGradient>
    <linearGradient id="earB" x1="196" y1="40" x2="260" y2="148" gradientUnits="userSpaceOnUse">
      <stop offset="0" stop-color="#fecaca"/>
      <stop offset="1" stop-color="#be123c"/>
    </linearGradient>
    <linearGradient id="eyeA" x1="92" y1="150" x2="125" y2="182" gradientUnits="userSpaceOnUse">
      <stop offset="0" stop-color="#fde68a"/>
      <stop offset="0.48" stop-color="#38bdf8"/>
      <stop offset="1" stop-color="#1e3a8a"/>
    </linearGradient>
    <linearGradient id="eyeB" x1="193" y1="150" x2="228" y2="183" gradientUnits="userSpaceOnUse">
      <stop offset="0" stop-color="#fde68a"/>
      <stop offset="0.48" stop-color="#22d3ee"/>
      <stop offset="1" stop-color="#1e40af"/>
    </linearGradient>
    <filter id="soft" x="-20%" y="-20%" width="140%" height="140%">
      <feDropShadow dx="0" dy="8" stdDeviation="7" flood-color="#334155" flood-opacity="0.18"/>
    </filter>
  </defs>

  <g filter="url(#soft)">
    <path d="M73 138 43 38l77 48c-23 14-38 31-47 52Z" fill="url(#earA)"/>
    <path d="M245 138 279 39l-81 50c24 13 39 29 47 49Z" fill="url(#earB)"/>
    <path d="M81 125 64 66l47 36c-13 8-23 16-30 23Z" fill="#ffe4e6"/>
    <path d="M236 125 257 67l-50 37c13 7 23 14 29 21Z" fill="#fee2e2"/>

    <path d="M52 187c0-69 48-119 108-119s108 50 108 119c0 74-54 124-108 124S52 261 52 187Z" fill="url(#furA)"/>
    <path d="M160 72c-14 24-18 54-17 88-22-11-42-20-70-26 18-39 51-62 87-62Z" fill="#fda4af" opacity=".72"/>
    <path d="M161 70c16 24 21 56 19 91 22-12 42-21 70-26-18-40-52-65-89-65Z" fill="#93c5fd" opacity=".68"/>

    <path d="M72 176c23-26 50-35 77-20-34 3-58 15-77 20Z" fill="#0f766e" opacity=".22"/>
    <path d="M249 176c-24-26-51-35-78-20 34 3 59 15 78 20Z" fill="#db2777" opacity=".22"/>

    <ellipse cx="111" cy="168" rx="25" ry="21" fill="url(#eyeA)"/>
    <ellipse cx="211" cy="168" rx="25" ry="21" fill="url(#eyeB)"/>
    <ellipse cx="112" cy="168" rx="9" ry="15" fill="#0f172a"/>
    <ellipse cx="211" cy="168" rx="9" ry="15" fill="#0f172a"/>
    <circle cx="103" cy="160" r="5" fill="#fff"/>
    <circle cx="202" cy="160" r="5" fill="#fff"/>

    <path d="M151 189c6 5 13 5 19 0l-10 13-9-13Z" fill="#fb7185"/>
    <path d="M160 202c-4 12-14 20-29 23" fill="none" stroke="#7f1d1d" stroke-width="4" stroke-linecap="round"/>
    <path d="M160 202c4 12 14 20 29 23" fill="none" stroke="#7f1d1d" stroke-width="4" stroke-linecap="round"/>
    <path d="M65 194c-24-2-43 2-58 13M68 214c-25 4-44 12-57 25M252 194c24-2 44 2 59 13M250 214c26 4 45 12 58 25" fill="none" stroke="#334155" stroke-width="4" stroke-linecap="round" opacity=".52"/>

    <path d="M96 102c16 21 42 31 62 62-36-16-68-23-93-18 8-21 18-35 31-44Z" fill="#f43f5e" opacity=".22"/>
    <path d="M222 103c-15 20-41 30-62 61 37-16 68-23 94-17-8-21-19-35-32-44Z" fill="#06b6d4" opacity=".24"/>
    <path d="M122 240c22 16 52 17 76 0-9 30-27 49-38 56-11-7-30-27-38-56Z" fill="#e0f2fe" opacity=".95"/>
    <path d="M142 244c-8 25-18 42-32 52M175 244c8 25 18 42 32 52" fill="none" stroke="#0e7490" stroke-width="10" stroke-linecap="round" opacity=".5"/>
  </g>

  <g>
    <path d="M67 282c-18-26-54-14-55 15 27 8 48 4 55-15Z" fill="#fb7185"/>
    <path d="M62 281c-30-4-46 21-31 43 29-4 42-20 31-43Z" fill="#f9a8d4"/>
    <path d="M87 294c-15-29-53-21-59 8 25 13 48 11 59-8Z" fill="#be123c" opacity=".78"/>

    <path d="M251 282c18-26 54-14 55 15-27 8-48 4-55-15Z" fill="#fb7185"/>
    <path d="M256 281c30-4 46 21 31 43-29-4-42-20-31-43Z" fill="#f9a8d4"/>
    <path d="M231 294c15-29 53-21 59 8-25 13-48 11-59-8Z" fill="#be123c" opacity=".78"/>

    <path d="M94 298c21-14 46-10 56 13-20 18-46 17-56-13Z" fill="#0e7490" opacity=".86"/>
    <path d="M224 298c-21-14-46-10-56 13 20 18 46 17 56-13Z" fill="#2563eb" opacity=".76"/>
    <path d="M74 330c33-12 61-12 86 1 25-13 53-13 86-1-42 20-130 20-172 0Z" fill="#64748b" opacity=".22"/>
  </g>
</svg>
